<svg xmlns="http://www.w3.org/2000/svg" viewBox="0 0 900 520" role="img" aria-labelledby="title desc">
  <title id="title">IGVFagent workflow</title>
  <desc id="desc">A compact workflow diagram for a local auditable biomedical AI agent.</desc>
  <rect width="900" height="520" fill="#f7fafb"/>
  <rect x="42" y="62" width="220" height="126" rx="8" fill="#eef7f8" stroke="#006d77" stroke-width="3"/>
  <text x="152" y="112" text-anchor="middle" fill="#17212b" font-family="Arial, Helvetica, sans-serif" font-size="28" font-weight="700">IGVF Portal</text>
  <text x="152" y="148" text-anchor="middle" fill="#5c6b78" font-family="Arial, Helvetica, sans-serif" font-size="21">Catalog + assays</text>
  <rect x="42" y="238" width="220" height="126" rx="8" fill="#fff6e6" stroke="#b8860b" stroke-width="3"/>
  <text x="152" y="288" text-anchor="middle" fill="#17212b" font-family="Arial, Helvetica, sans-serif" font-size="28" font-weight="700">Knowledge</text>
  <text x="152" y="324" text-anchor="middle" fill="#5c6b78" font-family="Arial, Helvetica, sans-serif" font-size="21">Graph + ENCODE</text>
  <rect x="638" y="62" width="220" height="126" rx="8" fill="#fdf1f3" stroke="#a51c30" stroke-width="3"/>
  <text x="748" y="112" text-anchor="middle" fill="#17212b" font-family="Arial, Helvetica, sans-serif" font-size="28" font-weight="700">FAVOR</text>
  <text x="748" y="148" text-anchor="middle" fill="#5c6b78" font-family="Arial, Helvetica, sans-serif" font-size="21">Variant annotation</text>
  <rect x="638" y="238" width="220" height="126" rx="8" fill="#eef3f5" stroke="#5c6b78" stroke-width="3"/>
  <text x="748" y="288" text-anchor="middle" fill="#17212b" font-family="Arial, Helvetica, sans-serif" font-size="28" font-weight="700">Evidence</text>
  <text x="748" y="324" text-anchor="middle" fill="#5c6b78" font-family="Arial, Helvetica, sans-serif" font-size="21">Papers + tools</text>
  <rect x="334" y="110" width="232" height="180" rx="18" fill="#17212b"/>
  <rect x="376" y="58" width="148" height="84" rx="30" fill="#ffffff" stroke="#17212b" stroke-width="10"/>
  <circle cx="420" cy="100" r="13" fill="#00a8d7"/>
  <circle cx="480" cy="100" r="13" fill="#00a8d7"/>
  <rect x="394" y="170" width="112" height="58" rx="8" fill="#ffffff"/>
  <path d="M412 199h24l12-18 18 36 10-18h20" fill="none" stroke="#00a8d7" stroke-width="8" stroke-linecap="round" stroke-linejoin="round"/>
  <text x="450" y="326" text-anchor="middle" fill="#17212b" font-family="Arial, Helvetica, sans-serif" font-size="38" font-weight="800">IGVFagent</text>
  <text x="450" y="362" text-anchor="middle" fill="#5c6b78" font-family="Arial, Helvetica, sans-serif" font-size="24">local, auditable AI agent</text>
  <path d="M272 124h50" stroke="#006d77" stroke-width="8" stroke-linecap="round"/>
  <path d="M272 300h50" stroke="#b8860b" stroke-width="8" stroke-linecap="round"/>
  <path d="M578 124h50" stroke="#a51c30" stroke-width="8" stroke-linecap="round"/>
  <path d="M578 300h50" stroke="#5c6b78" stroke-width="8" stroke-linecap="round"/>
  <g fill="#17212b" font-family="Arial, Helvetica, sans-serif" font-size="24" font-weight="700">
    <rect x="102" y="424" width="150" height="54" rx="8" fill="#ffffff" stroke="#d9e1e5"/>
    <text x="177" y="459" text-anchor="middle">Plan</text>
    <rect x="282" y="424" width="150" height="54" rx="8" fill="#ffffff" stroke="#d9e1e5"/>
    <text x="357" y="459" text-anchor="middle">Action</text>
    <rect x="462" y="424" width="150" height="54" rx="8" fill="#ffffff" stroke="#d9e1e5"/>
    <text x="537" y="459" text-anchor="middle">Results</text>
    <rect x="642" y="424" width="156" height="54" rx="8" fill="#ffffff" stroke="#d9e1e5"/>
    <text x="720" y="459" text-anchor="middle">Evaluation</text>
  </g>
  <path d="M252 451h30m150 0h30m150 0h30" stroke="#006d77" stroke-width="6" stroke-linecap="round"/>
</svg>
