<svg xmlns="http://www.w3.org/2000/svg" viewBox="0 0 900 520" role="img" aria-labelledby="title desc">
  <title id="title">WGSagent workflow</title>
  <desc id="desc">An end-to-end whole-genome sequencing AI agent workflow.</desc>
  <rect width="900" height="520" fill="#f7fafb"/>
  <rect x="46" y="52" width="210" height="86" rx="8" fill="#eef7f8" stroke="#006d77" stroke-width="3"/>
  <text x="151" y="89" text-anchor="middle" fill="#17212b" font-family="Arial, Helvetica, sans-serif" font-size="26" font-weight="800">BCFtools</text>
  <text x="151" y="118" text-anchor="middle" fill="#5c6b78" font-family="Arial, Helvetica, sans-serif" font-size="18">variant QC</text>
  <rect x="46" y="164" width="210" height="86" rx="8" fill="#ffffff" stroke="#d9e1e5" stroke-width="3"/>
  <text x="151" y="201" text-anchor="middle" fill="#17212b" font-family="Arial, Helvetica, sans-serif" font-size="26" font-weight="800">SeqArray</text>
  <text x="151" y="230" text-anchor="middle" fill="#5c6b78" font-family="Arial, Helvetica, sans-serif" font-size="18">scalable data</text>
  <rect x="46" y="276" width="210" height="86" rx="8" fill="#fff6e6" stroke="#b8860b" stroke-width="3"/>
  <text x="151" y="313" text-anchor="middle" fill="#17212b" font-family="Arial, Helvetica, sans-serif" font-size="24" font-weight="800">Ancestry</text>
  <text x="151" y="342" text-anchor="middle" fill="#5c6b78" font-family="Arial, Helvetica, sans-serif" font-size="18">FastSparseGRM</text>
  <rect x="324" y="72" width="252" height="188" rx="18" fill="#17212b"/>
  <rect x="374" y="30" width="152" height="82" rx="30" fill="#ffffff" stroke="#17212b" stroke-width="10"/>
  <circle cx="419" cy="70" r="13" fill="#00a8d7"/>
  <circle cx="481" cy="70" r="13" fill="#00a8d7"/>
  <rect x="390" y="140" width="120" height="58" rx="8" fill="#ffffff"/>
  <path d="M408 169h24l12-18 18 36 10-18h20" fill="none" stroke="#00a8d7" stroke-width="8" stroke-linecap="round" stroke-linejoin="round"/>
  <text x="450" y="304" text-anchor="middle" fill="#17212b" font-family="Arial, Helvetica, sans-serif" font-size="42" font-weight="800">WGSagent</text>
  <text x="450" y="340" text-anchor="middle" fill="#5c6b78" font-family="Arial, Helvetica, sans-serif" font-size="23">end-to-end WGS analysis</text>
  <rect x="644" y="52" width="210" height="86" rx="8" fill="#fdf1f3" stroke="#a51c30" stroke-width="3"/>
  <text x="749" y="89" text-anchor="middle" fill="#17212b" font-family="Arial, Helvetica, sans-serif" font-size="24" font-weight="800">FAVORannotator</text>
  <text x="749" y="118" text-anchor="middle" fill="#5c6b78" font-family="Arial, Helvetica, sans-serif" font-size="18">annotation</text>
  <rect x="644" y="164" width="210" height="86" rx="8" fill="#eef7f8" stroke="#006d77" stroke-width="3"/>
  <text x="749" y="201" text-anchor="middle" fill="#17212b" font-family="Arial, Helvetica, sans-serif" font-size="26" font-weight="800">STAAR</text>
  <text x="749" y="230" text-anchor="middle" fill="#5c6b78" font-family="Arial, Helvetica, sans-serif" font-size="18">single-study tests</text>
  <rect x="644" y="276" width="210" height="86" rx="8" fill="#ffffff" stroke="#d9e1e5" stroke-width="3"/>
  <text x="749" y="313" text-anchor="middle" fill="#17212b" font-family="Arial, Helvetica, sans-serif" font-size="25" font-weight="800">cellSTAAR</text>
  <text x="749" y="342" text-anchor="middle" fill="#5c6b78" font-family="Arial, Helvetica, sans-serif" font-size="18">cell-type aware</text>
  <path d="M268 95h42m-42 112h42m-42 112h42m322-224h42m-42 112h42m-42 112h42" stroke="#006d77" stroke-width="7" stroke-linecap="round"/>
  <rect x="274" y="396" width="352" height="70" rx="8" fill="#fff" stroke="#a51c30" stroke-width="3"/>
  <text x="450" y="425" text-anchor="middle" fill="#17212b" font-family="Arial, Helvetica, sans-serif" font-size="26" font-weight="800">eGASS</text>
  <text x="450" y="454" text-anchor="middle" fill="#5c6b78" font-family="Arial, Helvetica, sans-serif" font-size="19">efficient genotype and annotation storage</text>
  <g fill="#17212b" font-family="Arial, Helvetica, sans-serif" font-size="18" font-weight="700">
    <text x="68" y="452">Plan</text>
    <text x="118" y="452">Action</text>
    <text x="188" y="452">Review</text>
    <text x="690" y="452">Report</text>
    <text x="760" y="452">Reproduce</text>
  </g>
</svg>
